<?xml version="1.0" encoding="utf-8"?>
<!-- Generator: Adobe Illustrator 16.0.0, SVG Export Plug-In . SVG Version: 6.00 Build 0)  -->
<!DOCTYPE svg PUBLIC "-//W3C//DTD SVG 1.0//EN" "http://www.w3.org/TR/2001/REC-SVG-20010904/DTD/svg10.dtd">
<svg version="1.0" id="Camada_1" xmlns="http://www.w3.org/2000/svg" xmlns:xlink="http://www.w3.org/1999/xlink" x="0px" y="0px"
	 width="17.5px" height="17.5px" viewBox="0 0 17.5 17.5" enable-background="new 0 0 17.5 17.5" xml:space="preserve">
<g id="Ku79Jc_1_">
	<g>
		<path fill="#61B564" d="M7.518,0.135c0.786,0,1.572,0,2.358,0c0.051,0.125,0.168,0.091,0.264,0.107
			c3.984,0.676,7.045,4.056,7.217,7.971c0.186,4.229-2.436,7.826-6.467,8.89c-0.338,0.09-0.701,0.079-1.014,0.263
			c-0.785,0-1.571,0-2.357,0c-0.164-0.184-0.404-0.146-0.608-0.191c-3.78-0.817-6.669-4.221-6.771-7.989
			c-0.114-4.157,2.447-7.692,6.323-8.75C6.815,0.338,7.202,0.358,7.518,0.135z M17.247,8.749c-0.02-0.135-0.139-0.186-0.23-0.256
			c-2.662-2.029-5.326-4.055-7.984-6.09C8.814,2.235,8.668,2.248,8.456,2.41C5.812,4.434,3.163,6.452,0.51,8.464
			c-0.264,0.2-0.333,0.32-0.019,0.557c2.656,2.009,5.303,4.03,7.949,6.049c0.203,0.157,0.364,0.194,0.587,0.023
			c2.671-2.041,5.349-4.078,8.025-6.119C17.13,8.916,17.231,8.87,17.247,8.749z"/>
		<path fill="#F4D561" d="M17.247,8.749c-0.016,0.121-0.115,0.167-0.195,0.227c-2.674,2.04-5.352,4.077-8.024,6.119
			c-0.223,0.171-0.384,0.134-0.587-0.024c-2.646-2.02-5.293-4.04-7.949-6.048C0.177,8.784,0.246,8.664,0.51,8.464
			c2.653-2.012,5.303-4.03,7.946-6.055c0.211-0.162,0.357-0.175,0.577-0.007c2.658,2.035,5.322,4.061,7.984,6.09
			C17.108,8.563,17.226,8.614,17.247,8.749z M4.737,6.792C4.523,7.007,4.378,7.249,4.432,7.569
			c-0.712,3.404,2.295,5.961,5.259,5.283c1.318-0.299,2.363-0.995,2.939-2.273c0.104-0.151,0.215-0.297,0.223-0.489
			c0.037-0.057,0.082-0.106,0.102-0.166c0.73-2.169-0.406-4.537-2.582-5.389C8.174,3.675,5.688,4.672,4.737,6.792z"/>
		<path fill="#485AA5" d="M12.63,10.578c-0.576,1.28-1.621,1.977-2.939,2.273c-2.964,0.68-5.972-1.878-5.259-5.282
			c3.005-1.402,6.452-0.244,7.976,2.679C12.47,10.367,12.491,10.51,12.63,10.578z"/>
		<path fill="#4A5BA5" d="M4.737,6.792c0.951-2.12,3.437-3.117,5.633-2.259c2.176,0.851,3.314,3.219,2.584,5.389
			c-0.021,0.061-0.066,0.11-0.104,0.166c0.021-0.207-0.012-0.399-0.113-0.589c-1.053-1.929-2.678-2.986-4.856-3.216
			C6.786,6.168,5.76,6.465,4.737,6.792z"/>
		<path fill="#EFF1F7" d="M4.737,6.792C5.76,6.465,6.786,6.168,7.881,6.284c2.179,0.23,3.802,1.287,4.856,3.216
			c0.102,0.189,0.135,0.382,0.113,0.589c-0.008,0.192-0.117,0.338-0.223,0.489c-0.137-0.068-0.16-0.212-0.221-0.331
			c-1.525-2.923-4.972-4.081-7.977-2.679C4.378,7.249,4.523,7.007,4.737,6.792z"/>
	</g>
</g>
</svg>
