<?xml version="1.0" encoding="utf-8"?>
<!-- Generator: Adobe Illustrator 16.0.0, SVG Export Plug-In . SVG Version: 6.00 Build 0)  -->
<!DOCTYPE svg PUBLIC "-//W3C//DTD SVG 1.0//EN" "http://www.w3.org/TR/2001/REC-SVG-20010904/DTD/svg10.dtd">
<svg version="1.0" id="Camada_1" xmlns="http://www.w3.org/2000/svg" xmlns:xlink="http://www.w3.org/1999/xlink" x="0px" y="0px"
	 width="17.5px" height="17.5px" viewBox="0 0 17.5 17.5" enable-background="new 0 0 17.5 17.5" xml:space="preserve">
<g id="_x36_YxRIy_1_">
	<g>
		<path fill="#FFFFFF" d="M17.277,8.887c0.002,1.218-0.275,2.37-0.825,3.457c-5.106,0-10.216,0-15.324,0
			C0.578,11.258,0.304,10.105,0.3,8.89c2.897-0.006,5.795-0.013,8.692-0.019C11.754,8.875,14.516,8.881,17.277,8.887z"/>
		<path fill="#5286C5" d="M8.992,8.871C6.095,8.876,3.197,8.883,0.3,8.89C0.217,6.997,0.771,5.297,1.858,3.758
			c0.125,0.239,0.365,0.35,0.576,0.476c0.322,0.19,0.376,0.412,0.238,0.752c-0.171,0.42-0.293,0.859-0.436,1.292
			c-0.038,0.114-0.071,0.24,0.037,0.328c0.118,0.095,0.222,0,0.316-0.066c0.332-0.232,0.682-0.442,0.985-0.707
			c0.379-0.331,0.704-0.364,1.093-0.016c0.3,0.269,0.652,0.479,0.984,0.709c0.093,0.064,0.191,0.172,0.316,0.09
			C6.112,6.522,6.059,6.38,6.016,6.251C5.864,5.788,5.718,5.321,5.55,4.863C5.462,4.619,5.502,4.457,5.727,4.31
			c0.408-0.269,0.802-0.559,1.198-0.845c0.106-0.076,0.259-0.142,0.21-0.307c-0.049-0.165-0.208-0.142-0.34-0.143
			C6.306,3.014,5.816,3.002,5.328,3.02C5.05,3.029,4.896,2.94,4.82,2.658C4.706,2.236,4.552,1.825,4.414,1.409
			c1.4-0.882,2.928-1.286,4.581-1.213C9,1,9.004,1.803,9.009,2.606c0,1.148,0,2.296,0,3.444C9.004,6.99,8.999,7.93,8.992,8.871z"/>
		<path fill="#EA5566" d="M1.128,12.344c5.108,0,10.216,0,15.324,0c-0.521,1.113-1.24,2.07-2.209,2.833c-3.636,0-7.271,0-10.908,0
			C2.367,14.414,1.647,13.456,1.128,12.344z"/>
		<path fill="#FFFFFF" d="M9.009,6.051c0-1.148,0-2.296,0-3.444c1.89-0.005,3.779-0.011,5.668-0.016
			c1.062,0.941,1.761,2.113,2.188,3.457C14.245,6.048,11.627,6.049,9.009,6.051z"/>
		<path fill="#EA5566" d="M9.009,6.051c2.618-0.001,5.236-0.002,7.854-0.003c0.306,0.922,0.47,1.864,0.414,2.84
			c-2.762-0.006-5.523-0.012-8.285-0.017C8.999,7.93,9.004,6.99,9.009,6.051z"/>
		<path fill="#FDFDFD" d="M3.335,15.177c3.637,0,7.272,0,10.908,0c-1.833,1.585-3.978,2.201-6.36,1.964
			C6.172,16.967,4.63,16.344,3.335,15.177z"/>
		<path fill="#5286C5" d="M4.414,1.409C4.552,1.825,4.706,2.236,4.82,2.658C4.896,2.94,5.05,3.029,5.328,3.02
			c0.488-0.017,0.978-0.006,1.467-0.004c0.133,0,0.292-0.022,0.34,0.143c0.048,0.165-0.104,0.231-0.21,0.307
			C6.528,3.751,6.135,4.041,5.727,4.31C5.502,4.457,5.462,4.619,5.55,4.863c0.167,0.458,0.314,0.925,0.466,1.389
			c0.043,0.128,0.096,0.27-0.048,0.364c-0.125,0.082-0.223-0.025-0.316-0.09c-0.332-0.23-0.684-0.44-0.984-0.709
			c-0.39-0.349-0.714-0.315-1.093,0.016C3.271,6.098,2.921,6.308,2.589,6.54C2.495,6.606,2.391,6.701,2.272,6.605
			C2.165,6.517,2.198,6.391,2.236,6.277c0.143-0.433,0.265-0.872,0.436-1.292c0.138-0.34,0.084-0.562-0.238-0.752
			C2.223,4.108,1.982,3.997,1.858,3.758c0.196-0.264,0.371-0.545,0.631-0.756C2.8,2.941,3.219,3.23,3.403,2.758
			c0.1-0.26,0.227-0.521,0.227-0.811C3.865,1.73,4.121,1.542,4.414,1.409z"/>
		<path fill="#EA5566" d="M14.677,2.59c-1.889,0.005-3.778,0.011-5.668,0.016C9.004,1.803,9,1,8.995,0.196
			C11.195,0.265,13.105,1.023,14.677,2.59z"/>
		<path fill="#5286C5" d="M3.63,1.947c0,0.291-0.127,0.551-0.227,0.811C3.219,3.23,2.8,2.941,2.489,3.001
			C2.819,2.595,3.179,2.223,3.63,1.947z"/>
	</g>
</g>
<polygon fill="#FFFFFF" points="7.959,6.976 8.211,7.486 8.774,7.567 8.367,7.965 8.463,8.526 7.959,8.261 7.455,8.526 7.551,7.965 
	7.144,7.567 7.707,7.486 "/>
<polygon fill="#FFFFFF" points="7.968,4.821 8.22,5.332 8.783,5.413 8.375,5.811 8.472,6.372 7.968,6.106 7.464,6.372 7.561,5.811 
	7.153,5.413 7.716,5.332 "/>
<polygon fill="#FFFFFF" points="7.959,2.771 8.211,3.281 8.774,3.362 8.366,3.76 8.463,4.321 7.959,4.056 7.455,4.321 7.552,3.76 
	7.144,3.362 7.707,3.281 "/>
<polygon fill="#FFFFFF" points="5.956,6.935 6.208,7.445 6.771,7.526 6.363,7.924 6.46,8.485 5.956,8.22 5.452,8.485 5.549,7.924 
	5.141,7.526 5.704,7.445 "/>
<polygon fill="#FFFFFF" points="3.927,6.931 4.179,7.441 4.742,7.522 4.333,7.92 4.431,8.481 3.927,8.216 3.423,8.481 3.52,7.92 
	3.112,7.522 3.675,7.441 "/>
<polygon fill="#FFFFFF" points="5.956,4.78 6.208,5.291 6.771,5.372 6.363,5.77 6.46,6.331 5.956,6.065 5.452,6.331 5.548,5.77 
	5.141,5.372 5.704,5.291 "/>
<polygon fill="#FFFFFF" points="5.957,2.697 6.208,3.207 6.771,3.289 6.363,3.686 6.46,4.247 5.957,3.982 5.452,4.247 5.549,3.686 
	5.141,3.289 5.704,3.207 "/>
<polygon fill="#FFFFFF" points="3.927,4.776 4.179,5.287 4.742,5.368 4.333,5.766 4.431,6.327 3.927,6.062 3.423,6.327 3.52,5.766 
	3.112,5.368 3.675,5.287 "/>
<polygon fill="#FFFFFF" points="7.968,0.634 8.22,1.144 8.783,1.226 8.375,1.623 8.472,2.184 7.968,1.919 7.464,2.184 7.561,1.623 
	7.153,1.226 7.716,1.144 "/>
<polygon fill="#FFFFFF" points="1.858,6.948 2.11,7.458 2.673,7.54 2.265,7.937 2.362,8.498 1.858,8.233 1.354,8.498 1.451,7.937 
	1.043,7.54 1.606,7.458 "/>
<polygon fill="#FFFFFF" points="3.927,2.697 4.179,3.207 4.742,3.289 4.333,3.686 4.431,4.247 3.927,3.982 3.423,4.247 3.52,3.686 
	3.112,3.289 3.675,3.207 "/>
<polygon fill="#FFFFFF" points="5.956,0.634 6.208,1.144 6.771,1.226 6.362,1.623 6.46,2.184 5.956,1.919 5.452,2.184 5.548,1.623 
	5.141,1.226 5.704,1.144 "/>
<polygon fill="#FFFFFF" points="1.858,4.793 2.11,5.304 2.673,5.385 2.265,5.783 2.362,6.344 1.858,6.079 1.354,6.344 1.451,5.783 
	1.043,5.385 1.606,5.304 "/>
</svg>
