<?xml version="1.0" encoding="utf-8"?>
<!-- Generator: Adobe Illustrator 16.0.0, SVG Export Plug-In . SVG Version: 6.00 Build 0)  -->
<!DOCTYPE svg PUBLIC "-//W3C//DTD SVG 1.0//EN" "http://www.w3.org/TR/2001/REC-SVG-20010904/DTD/svg10.dtd">
<svg version="1.0" id="Camada_1" xmlns="http://www.w3.org/2000/svg" xmlns:xlink="http://www.w3.org/1999/xlink" x="0px" y="0px"
	 width="17.5px" height="17.5px" viewBox="0 0 17.5 17.5" enable-background="new 0 0 17.5 17.5" xml:space="preserve">
<g id="I2WJec_1_">
	<g>
		<path fill-rule="evenodd" clip-rule="evenodd" fill="#F5BB41" d="M0.839,12.037c-0.933-2.192-0.932-4.385,0-6.578
			c5.273,0,10.548,0,15.821,0c0.934,2.192,0.932,4.385,0,6.578C11.388,12.037,6.113,12.037,0.839,12.037z M5.597,6.703
			c-0.544,0-0.987,0.006-1.429-0.002c-0.238-0.005-0.335,0.09-0.333,0.33c0.009,0.749-0.024,1.5,0.014,2.247
			c0.045,0.866,0.777,1.519,1.628,1.517c0.852-0.002,1.562-0.659,1.626-1.525c0.023-0.322,0.018-0.647,0.006-0.97
			C7.09,7.792,7.324,7.137,7.016,6.818C6.682,6.471,6.014,6.757,5.597,6.703z"/>
		<path fill-rule="evenodd" clip-rule="evenodd" fill="#EA5566" d="M16.66,5.459c-5.272,0-10.547,0-15.821,0
			c1.106-2.653,3.082-4.32,5.839-5.044c3.943-1.035,8.173,1.001,9.863,4.709C16.589,5.232,16.621,5.348,16.66,5.459z"/>
		<path fill-rule="evenodd" clip-rule="evenodd" fill="#EA5566" d="M0.839,12.037c5.274,0,10.548,0,15.821,0
			c-1.112,2.675-3.108,4.345-5.887,5.06c-3.948,1.014-8.162-1.051-9.834-4.772C0.898,12.231,0.872,12.133,0.839,12.037z"/>
		<path fill-rule="evenodd" clip-rule="evenodd" fill="#EA5566" d="M5.597,6.703c0.417,0.054,1.085-0.231,1.419,0.116
			C7.324,7.137,7.09,7.792,7.109,8.299c0.012,0.323,0.018,0.647-0.006,0.97c-0.064,0.866-0.774,1.523-1.626,1.525
			c-0.852,0.002-1.583-0.651-1.628-1.517C3.811,8.53,3.844,7.779,3.835,7.03C3.833,6.791,3.929,6.695,4.167,6.7
			C4.61,6.709,5.053,6.703,5.597,6.703z"/>
	</g>
</g>
</svg>
