<?xml version="1.0" encoding="utf-8"?>
<!-- Generator: Adobe Illustrator 16.0.0, SVG Export Plug-In . SVG Version: 6.00 Build 0)  -->
<!DOCTYPE svg PUBLIC "-//W3C//DTD SVG 1.0//EN" "http://www.w3.org/TR/2001/REC-SVG-20010904/DTD/svg10.dtd">
<svg version="1.0" id="Camada_1" xmlns="http://www.w3.org/2000/svg" xmlns:xlink="http://www.w3.org/1999/xlink" x="0px" y="0px"
	 width="17.5px" height="17.5px" viewBox="0 0 17.5 17.5" enable-background="new 0 0 17.5 17.5" xml:space="preserve">
<g id="hihUYY_1_">
	<g>
		<path fill-rule="evenodd" clip-rule="evenodd" fill="#FFFFFF" d="M5.873,0.653c1.919-0.709,3.838-0.711,5.758,0.002
			c0,5.396,0,10.792,0,16.189c-1.919,0.715-3.838,0.713-5.758,0.002C5.873,11.447,5.873,6.05,5.873,0.653z"/>
		<path fill-rule="evenodd" clip-rule="evenodd" fill="#4759A4" d="M5.873,0.653c0,5.397,0,10.794,0,16.193
			c-1.714-0.553-3.041-1.629-4.111-3.051c-0.091-0.121-0.187-0.24-0.28-0.361c-0.896-1.529-1.407-3.162-1.352-4.954
			c0.02-0.633,0.145-1.251,0.251-1.872C1.21,3.801,2.938,1.796,5.677,0.7C5.739,0.675,5.808,0.668,5.873,0.653z"/>
		<path fill-rule="evenodd" clip-rule="evenodd" fill="#EA5566" d="M11.631,16.844c0-5.396,0-10.792,0-16.189
			c2.998,1.125,4.85,3.246,5.537,6.38c0.168,0.769,0.215,1.546,0.205,2.33c-0.178,1.346-0.51,2.643-1.236,3.813
			C15.057,14.916,13.588,16.182,11.631,16.844z"/>
	</g>
</g>
</svg>
