<?xml version="1.0" encoding="utf-8"?>
<!-- Generator: Adobe Illustrator 16.0.0, SVG Export Plug-In . SVG Version: 6.00 Build 0)  -->
<!DOCTYPE svg PUBLIC "-//W3C//DTD SVG 1.0//EN" "http://www.w3.org/TR/2001/REC-SVG-20010904/DTD/svg10.dtd">
<svg version="1.0" id="Camada_1" xmlns="http://www.w3.org/2000/svg" xmlns:xlink="http://www.w3.org/1999/xlink" x="0px" y="0px"
	 width="30px" height="30px" viewBox="0 0 30 30" enable-background="new 0 0 30 30" xml:space="preserve">
<g id="aEL5jW.tif">
	<g>
		<path fill="#25363B" d="M0.167,30.167c0-9.778,0.006-19.556-0.016-29.333C0.149,0.263,0.263,0.149,0.833,0.15
			c9.555,0.023,19.111,0.023,28.667,0c0.57-0.001,0.685,0.112,0.683,0.683c-0.022,9.555-0.022,19.111,0,28.667
			c0.002,0.57-0.112,0.684-0.683,0.683C19.723,30.16,9.944,30.167,0.167,30.167z M10.221,10.975c0,0.003,0,0.006,0,0.01
			c-0.805,0-1.61-0.006-2.416,0.005c-0.197,0.003-0.486-0.1-0.507,0.254c-0.017,0.289,0.23,0.271,0.41,0.297
			c0.757,0.109,0.993,0.595,0.991,1.293c-0.008,2.637-0.009,5.274-0.005,7.912C8.695,21.42,8.44,21.87,7.73,21.975
			c-0.217,0.031-0.489,0.017-0.421,0.355c0.055,0.277,0.305,0.188,0.48,0.188c1.138,0.007,2.277,0.011,3.415-0.005
			c0.213-0.004,0.566,0.178,0.605-0.213c0.04-0.397-0.326-0.297-0.545-0.313c-0.781-0.062-1.133-0.468-1.117-1.25
			c0.018-0.832-0.029-1.666,0.004-2.497c0.012-0.307-0.25-0.822,0.309-0.876c0.508-0.049,1.064-0.203,1.426,0.488
			c0.669,1.277,1.471,2.481,2.384,3.604c0.761,0.937,1.749,1.325,2.941,1.217c0.192-0.017,0.408-0.01,0.445-0.271
			c0.039-0.27-0.183-0.316-0.362-0.372c-0.546-0.17-0.994-0.49-1.375-0.903c-0.925-1.003-1.689-2.126-2.435-3.266
			c-0.334-0.511-0.315-0.731,0.287-1.013c1.424-0.664,2.157-2.16,1.854-3.556c-0.294-1.36-1.416-2.223-3.075-2.312
			C11.776,10.94,10.997,10.975,10.221,10.975z M17.976,10.405c0.009-0.001,0.019-0.001,0.028-0.002c0-0.25,0.004-0.499-0.001-0.749
			c-0.013-0.677,0.139-1.296,0.798-1.612c0.667-0.319,1.24-0.115,1.679,0.471c0.243,0.326,0.511,0.15,0.725-0.002
			C21.544,8.27,21.216,8.05,21.09,7.9c-0.646-0.763-1.515-0.893-2.424-0.685c-0.871,0.199-1.365,0.82-1.506,1.69
			c-0.15,0.936-0.148,1.88-0.007,2.817c0.176,1.16,0.983,1.806,2.214,1.795c1.233-0.011,1.999-0.665,2.162-1.849
			c0.217-1.574,0.191-1.611-1.34-1.558c-0.265,0.009-0.665-0.159-0.698,0.34c-0.033,0.507,0.36,0.409,0.636,0.393
			c0.464-0.027,0.582,0.192,0.532,0.601c-0.084,0.682-0.4,1.145-1.129,1.221c-0.732,0.076-1.269-0.207-1.444-0.941
			C17.984,11.301,18.008,10.846,17.976,10.405z"/>
		<path fill-rule="evenodd" clip-rule="evenodd" fill="#FAFDFD" d="M10.221,10.975c0.776,0,1.555-0.035,2.33,0.007
			c1.66,0.089,2.781,0.951,3.075,2.312c0.303,1.396-0.43,2.892-1.854,3.556c-0.602,0.281-0.621,0.502-0.287,1.013
			c0.746,1.14,1.51,2.263,2.435,3.266c0.38,0.413,0.829,0.733,1.375,0.903c0.18,0.056,0.401,0.103,0.362,0.372
			c-0.037,0.261-0.253,0.254-0.445,0.271c-1.192,0.108-2.18-0.28-2.941-1.217c-0.913-1.123-1.715-2.327-2.384-3.604
			c-0.362-0.691-0.917-0.537-1.426-0.488c-0.559,0.054-0.297,0.569-0.309,0.876c-0.033,0.831,0.014,1.665-0.004,2.497
			c-0.016,0.782,0.335,1.188,1.117,1.25c0.219,0.017,0.585-0.084,0.545,0.313c-0.039,0.391-0.393,0.209-0.605,0.213
			c-1.138,0.016-2.276,0.012-3.415,0.005c-0.176-0.001-0.426,0.089-0.48-0.188c-0.067-0.339,0.205-0.324,0.421-0.355
			c0.709-0.104,0.965-0.555,0.963-1.229c-0.004-2.638-0.003-5.274,0.005-7.912c0.002-0.699-0.234-1.185-0.991-1.293
			c-0.18-0.026-0.427-0.008-0.41-0.297c0.021-0.354,0.311-0.251,0.507-0.254c0.805-0.011,1.61-0.005,2.416-0.005
			C10.221,10.981,10.221,10.978,10.221,10.975z M11.274,16.488c0.249,0,0.5,0.023,0.745-0.005c1.238-0.145,2.096-1.1,2.129-2.355
			c0.035-1.292-0.657-2.128-1.969-2.337c-0.406-0.065-0.825-0.05-1.237-0.081c-0.581-0.044-0.852,0.155-0.817,0.799
			c0.05,0.965,0.012,1.934,0.013,2.901C10.138,16.517,10.139,16.517,11.274,16.488z"/>
		<path fill-rule="evenodd" clip-rule="evenodd" fill="#FAFDFD" d="M17.976,10.405c0.032,0.441,0.009,0.896,0.11,1.32
			c0.176,0.734,0.712,1.017,1.444,0.941c0.729-0.076,1.045-0.539,1.129-1.221c0.05-0.409-0.068-0.628-0.532-0.601
			c-0.275,0.016-0.669,0.114-0.636-0.393c0.033-0.499,0.434-0.331,0.698-0.34c1.531-0.053,1.557-0.016,1.34,1.558
			c-0.163,1.184-0.929,1.838-2.162,1.849c-1.23,0.011-2.038-0.635-2.214-1.795c-0.142-0.938-0.144-1.882,0.007-2.817
			c0.141-0.87,0.635-1.491,1.506-1.69c0.909-0.208,1.777-0.078,2.424,0.685c0.126,0.149,0.454,0.369,0.114,0.611
			c-0.214,0.153-0.481,0.328-0.725,0.002c-0.438-0.586-1.012-0.791-1.679-0.471c-0.659,0.316-0.811,0.935-0.798,1.612
			c0.005,0.25,0.001,0.499,0.001,0.749C17.994,10.404,17.984,10.404,17.976,10.405z"/>
		<path fill-rule="evenodd" clip-rule="evenodd" fill="#25363B" d="M11.274,16.488c-1.135,0.028-1.136,0.028-1.137-1.077
			c0-0.967,0.038-1.937-0.013-2.901c-0.034-0.644,0.237-0.843,0.817-0.799c0.412,0.031,0.831,0.016,1.237,0.081
			c1.312,0.209,2.003,1.045,1.969,2.337c-0.033,1.255-0.891,2.21-2.129,2.355C11.774,16.512,11.522,16.488,11.274,16.488z"/>
	</g>
</g>
</svg>
