<?xml version="1.0" encoding="utf-8"?>
<!-- Generator: Adobe Illustrator 16.0.0, SVG Export Plug-In . SVG Version: 6.00 Build 0)  -->
<!DOCTYPE svg PUBLIC "-//W3C//DTD SVG 1.0//EN" "http://www.w3.org/TR/2001/REC-SVG-20010904/DTD/svg10.dtd">
<svg version="1.0" id="Camada_1" xmlns="http://www.w3.org/2000/svg" xmlns:xlink="http://www.w3.org/1999/xlink" x="0px" y="0px"
	 width="35px" height="33px" viewBox="0 0 35 33" enable-background="new 0 0 35 33" xml:space="preserve">
<path fill="#25353C" d="M1.888,18.201c4.149,0.104,2.784,2.729,2.728,4.795c-0.083,3.064,0.351,5.967,3.551,7.221
	c3.119,1.221,5.747-0.295,7.664-2.623c2.119-2.57,3.857-5.457,5.993-8.537c1.407,2.545,1.093,6.26,4.962,6.854
	c3.268,0.5,5.425-1.463,7.812-3.02c0-0.965,0-1.928,0-2.891c-2.243-1.83-4.467,3.477-6.12,0.373
	c-1.091-2.047-0.533-4.971-0.712-7.502c-0.021-0.319-0.012-0.642-0.063-0.956c-0.259-1.601-0.524-3.386-2.315-3.861
	c-1.973-0.523-2.708,1.181-3.494,2.587c-1.946,3.482-3.775,7.042-5.931,10.392c-1.011,1.57-1.878,4.543-4.283,3.496
	c-1.992-0.865-0.771-3.439-0.387-5.25c0.761-3.586,1.709-7.135,2.433-10.729c0.354-1.759,0.382-3.787-1.737-4.433
	c-1.924-0.587-2.713,1.141-3.512,2.544c-1.811,3.187-3.497,6.48-6.805,8.467C1.011,16.253,0.154,18.158,1.888,18.201z"/>
</svg>
